<svg width="125" height="50" viewBox="0 0 125 50" fill="none" xmlns="http://www.w3.org/2000/svg">
<g clip-path="url(#clip0_22_655)">
<path fill-rule="evenodd" clip-rule="evenodd" d="M20.531 0C9.19204 0 0 8.95431 0 20V30C0 41.0457 9.19203 50 20.531 50H30.7965C42.1354 50 51.3274 41.0457 51.3274 30V20C51.3274 8.95431 42.1354 0 30.7965 0H20.531Z" fill="#171717"/>
<path d="M20.3162 32.78C20.5562 32.9267 20.8295 33.0667 21.1362 33.2C21.4295 33.3333 21.7028 33.4 21.9562 33.4C22.2628 33.4 22.5495 33.2867 22.8162 33.06C23.0828 32.8467 23.2162 32.46 23.2162 31.9V18H28.1162V33C28.1162 33.7467 27.9628 34.3733 27.6562 34.88C27.3495 35.4 26.9362 35.8133 26.4162 36.12C25.8962 36.4267 25.3028 36.6467 24.6362 36.78C23.9695 36.9267 23.2762 37 22.5562 37C21.9428 37 21.3495 36.94 20.7762 36.82C20.2028 36.7 19.6762 36.5467 19.1962 36.36C18.7028 36.1867 18.2695 36 17.8962 35.8L20.3162 32.78Z" fill="white"/>
<path d="M63.5848 33.76C63.7582 33.96 63.9848 34.1267 64.2648 34.26C64.5448 34.3933 64.8515 34.46 65.1848 34.46C65.4915 34.46 65.7915 34.3267 66.0848 34.06C66.3782 33.8067 66.5248 33.36 66.5248 32.72V18H68.9448V33.16C68.9448 33.7467 68.8515 34.2533 68.6648 34.68C68.4782 35.1067 68.2182 35.46 67.8848 35.74C67.5648 36.02 67.1782 36.22 66.7248 36.34C66.2715 36.4733 65.7782 36.54 65.2448 36.54C64.8315 36.54 64.4315 36.48 64.0448 36.36C63.6582 36.2533 63.3182 36.12 63.0248 35.96C62.7315 35.8 62.4982 35.6467 62.3248 35.5L63.5848 33.76ZM71.1722 27.4C71.1722 26.4533 71.3855 25.62 71.8122 24.9C72.2522 24.18 72.8455 23.62 73.5922 23.22C74.3389 22.8067 75.1855 22.6 76.1322 22.6C77.0789 22.6 77.9189 22.8067 78.6522 23.22C79.3989 23.62 79.9922 24.18 80.4322 24.9C80.8722 25.62 81.0922 26.4533 81.0922 27.4C81.0922 28.3333 80.8722 29.1667 80.4322 29.9C79.9922 30.62 79.3989 31.1867 78.6522 31.6C77.9189 32 77.0789 32.2 76.1322 32.2C75.1855 32.2 74.3389 32 73.5922 31.6C72.8455 31.1867 72.2522 30.62 71.8122 29.9C71.3855 29.1667 71.1722 28.3333 71.1722 27.4ZM73.3922 27.4C73.3922 27.9733 73.5122 28.48 73.7522 28.92C73.9922 29.3467 74.3189 29.6867 74.7322 29.94C75.1455 30.18 75.6122 30.3 76.1322 30.3C76.6389 30.3 77.0989 30.18 77.5122 29.94C77.9389 29.6867 78.2722 29.3467 78.5122 28.92C78.7522 28.48 78.8722 27.9733 78.8722 27.4C78.8722 26.8267 78.7522 26.32 78.5122 25.88C78.2722 25.44 77.9389 25.1 77.5122 24.86C77.0989 24.62 76.6389 24.5 76.1322 24.5C75.6122 24.5 75.1455 24.62 74.7322 24.86C74.3189 25.1 73.9922 25.44 73.7522 25.88C73.5122 26.32 73.3922 26.8267 73.3922 27.4ZM85.2417 16.4V32H83.0617V16.4H85.2417ZM92.8617 27.4C92.8617 28.4 92.6551 29.26 92.2417 29.98C91.8284 30.7 91.2817 31.2533 90.6017 31.64C89.9217 32.0133 89.1817 32.2 88.3817 32.2C87.6217 32.2 86.9417 32.0067 86.3417 31.62C85.7551 31.2333 85.2951 30.68 84.9617 29.96C84.6284 29.24 84.4617 28.3867 84.4617 27.4C84.4617 26.4 84.6284 25.5467 84.9617 24.84C85.2951 24.12 85.7551 23.5667 86.3417 23.18C86.9417 22.7933 87.6217 22.6 88.3817 22.6C89.1817 22.6 89.9217 22.7933 90.6017 23.18C91.2817 23.5533 91.8284 24.1 92.2417 24.82C92.6551 25.5267 92.8617 26.3867 92.8617 27.4ZM90.6217 27.4C90.6217 26.7867 90.4951 26.26 90.2417 25.82C89.9884 25.38 89.6484 25.0467 89.2217 24.82C88.8084 24.5933 88.3484 24.48 87.8417 24.48C87.4284 24.48 87.0217 24.5933 86.6217 24.82C86.2217 25.0467 85.8884 25.38 85.6217 25.82C85.3684 26.2467 85.2417 26.7733 85.2417 27.4C85.2417 28.0267 85.3684 28.56 85.6217 29C85.8884 29.4267 86.2217 29.7533 86.6217 29.98C87.0217 30.2067 87.4284 30.32 87.8417 30.32C88.3484 30.32 88.8084 30.2067 89.2217 29.98C89.6484 29.7533 89.9884 29.42 90.2417 28.98C90.4951 28.54 90.6217 28.0133 90.6217 27.4ZM96.0191 27.5C96.3257 28.0333 96.6524 28.5067 96.9991 28.92C97.3591 29.32 97.7524 29.6333 98.1791 29.86C98.6057 30.0733 99.0857 30.18 99.6191 30.18C100.259 30.18 100.779 30.0067 101.179 29.66C101.579 29.3133 101.779 28.8667 101.779 28.32C101.779 27.8 101.652 27.3867 101.399 27.08C101.146 26.76 100.792 26.4933 100.339 26.28C99.8991 26.0533 99.3857 25.8333 98.7991 25.62C98.4524 25.5 98.0657 25.34 97.6391 25.14C97.2124 24.9267 96.8057 24.6667 96.4191 24.36C96.0324 24.04 95.7124 23.6533 95.4591 23.2C95.2057 22.7333 95.0791 22.1733 95.0791 21.52C95.0791 20.7733 95.2724 20.12 95.6591 19.56C96.0457 18.9867 96.5657 18.5467 97.2191 18.24C97.8857 17.92 98.6391 17.76 99.4791 17.76C100.306 17.76 101.026 17.9067 101.639 18.2C102.252 18.4933 102.766 18.8667 103.179 19.32C103.606 19.7733 103.939 20.2467 104.179 20.74L102.259 21.82C102.086 21.4733 101.866 21.1533 101.599 20.86C101.332 20.5533 101.019 20.3133 100.659 20.14C100.312 19.9533 99.9057 19.86 99.4391 19.86C98.7857 19.86 98.3057 20.0133 97.9991 20.32C97.6924 20.6133 97.5391 20.96 97.5391 21.36C97.5391 21.72 97.6457 22.0467 97.8591 22.34C98.0857 22.62 98.4324 22.8867 98.8991 23.14C99.3657 23.3933 99.9724 23.6533 100.719 23.92C101.132 24.0667 101.546 24.2533 101.959 24.48C102.386 24.7067 102.772 24.9933 103.119 25.34C103.466 25.6733 103.739 26.0667 103.939 26.52C104.152 26.9733 104.259 27.5067 104.259 28.12C104.259 28.7733 104.132 29.36 103.879 29.88C103.626 30.4 103.279 30.84 102.839 31.2C102.399 31.5467 101.899 31.8133 101.339 32C100.792 32.2 100.219 32.3 99.6191 32.3C98.7924 32.3 98.0257 32.14 97.3191 31.82C96.6257 31.4867 96.0191 31.0467 95.4991 30.5C94.9791 29.9533 94.5657 29.36 94.2591 28.72L96.0191 27.5ZM106.421 19.14C106.421 18.7667 106.554 18.4533 106.821 18.2C107.101 17.9467 107.421 17.82 107.781 17.82C108.168 17.82 108.488 17.9467 108.741 18.2C109.008 18.4533 109.141 18.7667 109.141 19.14C109.141 19.5 109.008 19.8133 108.741 20.08C108.488 20.3333 108.168 20.46 107.781 20.46C107.421 20.46 107.101 20.3333 106.821 20.08C106.554 19.8133 106.421 19.5 106.421 19.14ZM106.721 22.8H108.841V32H106.721V22.8ZM111.054 22.8H116.334V24.7H111.054V22.8ZM116.094 18.72C115.96 18.5067 115.807 18.3667 115.634 18.3C115.474 18.2333 115.307 18.2 115.134 18.2C114.934 18.2 114.76 18.2533 114.614 18.36C114.48 18.4667 114.374 18.64 114.294 18.88C114.214 19.12 114.174 19.4333 114.174 19.82V32H112.054V19.4C112.054 18.68 112.167 18.0867 112.394 17.62C112.634 17.14 112.974 16.78 113.414 16.54C113.854 16.2867 114.394 16.16 115.034 16.16C115.394 16.16 115.707 16.2067 115.974 16.3C116.24 16.3933 116.467 16.5067 116.654 16.64C116.854 16.7733 117.007 16.9067 117.114 17.04L116.094 18.72ZM116.705 22.8H121.925V24.7H116.705V22.8ZM118.245 19.6H120.385V32H118.245V19.6Z" fill="#171717"/>
</g>
<defs>
<clipPath id="clip0_22_655">
<rect width="125" height="50" fill="white"/>
</clipPath>
</defs>
</svg>
